<svg width="35" height="37" viewBox="0 0 35 37" fill="none" xmlns="http://www.w3.org/2000/svg">
<path d="M24.7916 27.75C23.1728 27.75 21.8749 29.1221 21.8749 30.8333C21.8749 31.6511 22.1822 32.4353 22.7292 33.0136C23.2762 33.5918 24.018 33.9166 24.7916 33.9166C25.5651 33.9166 26.307 33.5918 26.854 33.0136C27.401 32.4353 27.7083 31.6511 27.7083 30.8333C27.7083 30.0156 27.401 29.2313 26.854 28.6531C26.307 28.0748 25.5651 27.75 24.7916 27.75ZM1.45825 3.08331V6.16665H4.37492L9.62492 17.8679L7.64158 21.645C7.42283 22.0766 7.29158 22.5854 7.29158 23.125C7.29158 23.9427 7.59888 24.727 8.14586 25.3052C8.69284 25.8835 9.4347 26.2083 10.2083 26.2083H27.7083V23.125H10.8208C10.7241 23.125 10.6313 23.0844 10.563 23.0121C10.4946 22.9398 10.4562 22.8418 10.4562 22.7396C10.4562 22.6625 10.4708 22.6008 10.4999 22.5546L11.8124 20.0416H22.677C23.7708 20.0416 24.7332 19.3941 25.2291 18.4537L30.4499 8.47915C30.552 8.23248 30.6249 7.9704 30.6249 7.70831C30.6249 7.29944 30.4713 6.90731 30.1978 6.61819C29.9243 6.32907 29.5534 6.16665 29.1666 6.16665H7.59784L6.227 3.08331M10.2083 27.75C8.5895 27.75 7.29158 29.1221 7.29158 30.8333C7.29158 31.6511 7.59888 32.4353 8.14586 33.0136C8.69284 33.5918 9.4347 33.9166 10.2083 33.9166C10.9818 33.9166 11.7237 33.5918 12.2706 33.0136C12.8176 32.4353 13.1249 31.6511 13.1249 30.8333C13.1249 30.0156 12.8176 29.2313 12.2706 28.6531C11.7237 28.0748 10.9818 27.75 10.2083 27.75Z" fill="black"/>
</svg>
