<?xml version="1.0" standalone="no"?>
<!DOCTYPE svg PUBLIC "-//W3C//DTD SVG 20010904//EN"
 "http://www.w3.org/TR/2001/REC-SVG-20010904/DTD/svg10.dtd">
<svg version="1.0" xmlns="http://www.w3.org/2000/svg"
 width="500.000000pt" height="500.000000pt" viewBox="0 0 500.000000 500.000000"
 preserveAspectRatio="xMidYMid meet">

<g transform="translate(0.000000,500.000000) scale(0.100000,-0.100000)"
fill="#000000" stroke="none">
<path d="M2277 4549 c-310 -27 -660 -151 -921 -324 -409 -272 -715 -692 -842
-1155 -51 -184 -65 -284 -71 -491 -8 -258 19 -459 88 -675 31 -98 51 -121 90
-109 37 12 43 46 21 116 -70 215 -96 376 -96 609 0 328 61 586 205 870 163
321 421 602 721 784 744 452 1692 354 2332 -242 72 -67 61 -76 -96 -82 -133
-5 -158 -14 -158 -55 0 -45 16 -48 257 -46 198 2 230 4 247 19 17 16 18 30 13
237 -3 121 -8 228 -12 238 -11 26 -52 33 -75 12 -17 -15 -20 -34 -22 -149 -4
-162 -8 -165 -106 -75 -415 383 -985 571 -1575 518z"/>
<path d="M2246 4419 c-465 -60 -889 -283 -1192 -627 -260 -294 -412 -623 -470
-1014 -13 -88 -15 -155 -11 -303 6 -210 20 -306 73 -487 18 -66 34 -132 34
-147 0 -35 -37 -71 -76 -72 l-29 -1 33 -14 c28 -12 36 -12 61 1 43 22 45 51
11 161 -79 255 -107 526 -79 772 87 787 641 1441 1399 1651 196 54 454 78 656
61 231 -19 469 -80 659 -169 47 -22 85 -37 85 -35 0 10 -210 103 -301 134
-213 71 -395 100 -624 99 -88 -1 -191 -6 -229 -10z"/>
<path d="M4090 4006 c0 -134 -4 -235 -10 -246 -17 -32 -76 -40 -294 -40 -167
0 -207 -3 -198 -12 13 -13 68 -15 335 -10 145 2 148 3 174 28 l26 26 -6 231
c-9 311 -27 327 -27 23z"/>
<path d="M3437 4169 c7 -7 15 -10 18 -7 3 3 -2 9 -12 12 -14 6 -15 5 -6 -5z"/>
<path d="M2395 3710 c-165 -33 -320 -149 -397 -296 -59 -112 -68 -162 -68
-375 0 -103 -4 -199 -9 -212 -8 -20 -18 -25 -61 -30 -56 -7 -107 -38 -138 -85
-15 -24 -17 -70 -20 -487 -2 -307 0 -472 8 -497 13 -44 66 -93 117 -107 25 -7
266 -11 691 -11 705 0 693 -1 750 53 53 49 52 42 52 542 0 444 -1 468 -20 505
-26 51 -71 82 -128 88 -26 2 -53 9 -59 15 -10 7 -13 59 -13 197 0 212 -15 294
-72 403 -70 133 -230 257 -379 292 -68 16 -188 18 -254 5z m265 -119 c166 -52
301 -208 329 -381 15 -92 14 -383 -1 -398 -9 -9 -127 -12 -469 -12 -252 0
-464 3 -473 6 -14 5 -16 32 -16 198 0 271 25 351 145 471 130 129 306 171 485
116z m427 -1643 c-3 -8 -6 -5 -6 6 -1 11 2 17 5 13 3 -3 4 -12 1 -19z m-427
-88 c0 -13 -1 -13 -10 0 -5 8 -10 22 -10 30 0 13 1 13 10 0 5 -8 10 -22 10
-30z m510 -30 c0 -5 -4 -10 -10 -10 -5 0 -10 5 -10 10 0 6 5 10 10 10 6 0 10
-4 10 -10z m-495 -31 c9 -17 15 -37 13 -46 -2 -9 -12 4 -24 31 -24 51 -14 64
11 15z m-145 -5 c0 -14 -4 -23 -9 -20 -5 3 -7 15 -4 26 7 28 13 25 13 -6z
m520 -49 c0 -5 -5 -3 -10 5 -5 8 -10 20 -10 25 0 6 5 3 10 -5 5 -8 10 -19 10
-25z"/>
<path d="M2378 3571 c-143 -46 -242 -141 -298 -286 -21 -53 -24 -82 -28 -257
-4 -178 -3 -198 12 -198 14 0 16 20 16 168 0 239 23 312 134 430 93 99 249
151 390 131 35 -5 76 -13 90 -19 40 -15 45 -12 11 7 -83 45 -228 55 -327 24z"/>
<path d="M3085 3355 c30 -89 37 -146 42 -327 4 -118 10 -198 16 -198 6 0 8 71
5 193 -4 160 -9 203 -27 257 -11 36 -26 72 -32 80 -9 12 -10 11 -4 -5z"/>
<path d="M4333 3239 c-33 -12 -37 -43 -14 -112 69 -213 95 -378 95 -617 0
-267 -26 -414 -115 -655 -313 -843 -1167 -1368 -2049 -1260 -235 29 -410 84
-645 201 -163 81 -281 161 -411 275 -121 108 -115 119 62 119 133 0 154 8 154
54 0 47 -15 49 -258 47 -196 -2 -229 -5 -245 -19 -17 -16 -19 -33 -15 -243 3
-240 7 -259 52 -259 47 0 51 11 56 157 4 118 7 138 22 141 9 2 48 -26 90 -63
83 -76 249 -199 323 -240 132 -74 198 -106 285 -141 440 -174 939 -191 1385
-47 300 97 557 250 783 468 323 310 521 675 605 1115 19 100 22 148 21 365 0
234 -2 258 -27 380 -30 140 -74 292 -90 313 -17 22 -41 30 -64 21z"/>
<path d="M4441 3198 c-1 -4 13 -56 29 -115 57 -201 74 -334 74 -568 0 -238
-17 -362 -79 -572 -241 -831 -978 -1422 -1847 -1484 -324 -23 -700 44 -984
176 -43 19 -79 34 -81 32 -8 -8 180 -88 307 -131 751 -252 1583 -49 2130 520
295 306 477 667 555 1099 23 124 31 427 16 551 -19 147 -46 276 -85 394 -19
58 -34 102 -35 98z"/>
<path d="M3340 2687 c6 -17 10 -202 10 -480 l0 -452 -24 -52 c-17 -36 -38 -60
-67 -80 l-43 -28 -707 0 c-389 0 -705 -3 -703 -7 16 -25 137 -29 769 -26 639
3 661 4 694 23 19 11 48 37 65 58 l31 39 3 466 c2 257 0 481 -3 498 -3 17 -12
39 -20 50 -14 18 -14 17 -5 -9z"/>
<path d="M1440 1243 c0 -12 -11 -35 -24 -50 -24 -27 -27 -28 -150 -32 -71 -2
-123 -7 -120 -12 3 -5 65 -9 138 -9 119 0 134 2 154 20 23 22 29 64 12 90 -8
12 -10 11 -10 -7z"/>
<path d="M1025 915 c0 -114 -2 -126 -22 -146 -12 -12 -35 -22 -52 -23 -28 -1
-29 -2 -14 -13 25 -19 70 -16 93 7 19 19 20 31 18 157 -4 176 -23 192 -23 18z"/>
</g>
</svg>
