<svg width="40" height="40" viewBox="0 0 40 40" fill="none" xmlns="http://www.w3.org/2000/svg">
<path d="M16.6668 23.3333L35.0001 5M16.6668 23.3333L22.5001 35C22.5732 35.1596 22.6906 35.2948 22.8384 35.3896C22.9861 35.4844 23.1579 35.5348 23.3335 35.5348C23.509 35.5348 23.6808 35.4844 23.8285 35.3896C23.9763 35.2948 24.0937 35.1596 24.1668 35L35.0001 5M16.6668 23.3333L5.00012 17.5C4.84055 17.4269 4.70533 17.3095 4.61053 17.1618C4.51573 17.014 4.46533 16.8422 4.46533 16.6667C4.46533 16.4911 4.51573 16.3193 4.61053 16.1716C4.70533 16.0239 4.84055 15.9065 5.00012 15.8333L35.0001 5" stroke="black" stroke-linecap="round" stroke-linejoin="round"/>
</svg>
